<svg width="25" height="25" viewBox="0 0 25 25" fill="none" xmlns="http://www.w3.org/2000/svg">
<path d="M19.9688 22.0547L11.3047 22.0469C10.9193 22.0469 10.5547 22.0026 10.2109 21.9141C9.8724 21.8307 9.55208 21.6979 9.25 21.5156C8.94792 21.3385 8.66406 21.112 8.39844 20.8359L2.38281 14.7031C2.16927 14.4844 1.99479 14.2734 1.85938 14.0703C1.72917 13.8672 1.63281 13.6667 1.57031 13.4688C1.50781 13.2656 1.47656 13.0599 1.47656 12.8516C1.47656 12.6432 1.50781 12.4401 1.57031 12.2422C1.63281 12.0443 1.72917 11.8438 1.85938 11.6406C1.99479 11.4323 2.16927 11.2214 2.38281 11.0078L8.39062 4.80469C8.65625 4.52865 8.9401 4.3099 9.24219 4.14844C9.54427 3.98177 9.86458 3.86458 10.2031 3.79688C10.5469 3.72917 10.9115 3.69531 11.2969 3.69531H19.9688C20.9792 3.69531 21.7396 3.94792 22.25 4.45312C22.7604 4.95312 23.0156 5.70312 23.0156 6.70312V19.0469C23.0156 20.0469 22.7604 20.7969 22.25 21.2969C21.7396 21.8021 20.9792 22.0547 19.9688 22.0547ZM10.6797 16.9922C10.8828 16.9922 11.0573 16.9193 11.2031 16.7734L14.0703 13.8906L16.9453 16.7734C17.0807 16.9193 17.2526 16.9922 17.4609 16.9922C17.6641 16.9922 17.8359 16.9219 17.9766 16.7812C18.1172 16.6406 18.1875 16.4688 18.1875 16.2656C18.1875 16.0573 18.1172 15.8854 17.9766 15.75L15.0938 12.875L17.9844 9.98438C18.125 9.84375 18.1953 9.67188 18.1953 9.46875C18.1953 9.27604 18.125 9.11198 17.9844 8.97656C17.8438 8.83594 17.6745 8.76562 17.4766 8.76562C17.2891 8.76562 17.1224 8.83854 16.9766 8.98438L14.0703 11.875L11.1797 8.99219C11.0339 8.85156 10.8672 8.78125 10.6797 8.78125C10.4766 8.78125 10.3047 8.84896 10.1641 8.98438C10.0286 9.11979 9.96094 9.28646 9.96094 9.48438C9.96094 9.68229 10.0312 9.85156 10.1719 9.99219L13.0547 12.875L10.1719 15.7578C10.0312 15.9036 9.96094 16.0729 9.96094 16.2656C9.96094 16.4688 10.0286 16.6406 10.1641 16.7812C10.3047 16.9219 10.4766 16.9922 10.6797 16.9922Z" fill="#14161D"/>
</svg>
