<svg width="31" height="30" viewBox="0 0 31 30" fill="none" xmlns="http://www.w3.org/2000/svg">
<path d="M1.95312 9.85938C1.61719 9.85938 1.35938 9.76953 1.17969 9.58984C1 9.40234 0.910156 9.14062 0.910156 8.80469V4.98438C0.910156 3.48438 1.29297 2.35938 2.05859 1.60938C2.82422 0.851562 3.96094 0.472656 5.46875 0.472656H9.28906C9.625 0.472656 9.88281 0.5625 10.0625 0.742188C10.25 0.921875 10.3438 1.17969 10.3438 1.51562C10.3438 1.84375 10.25 2.09766 10.0625 2.27734C9.88281 2.45703 9.625 2.54688 9.28906 2.54688H5.51562C4.69531 2.54688 4.06641 2.76172 3.62891 3.19141C3.19922 3.62109 2.98438 4.25781 2.98438 5.10156V8.80469C2.98438 9.14062 2.89453 9.40234 2.71484 9.58984C2.54297 9.76953 2.28906 9.85938 1.95312 9.85938ZM29.0469 9.85938C28.7188 9.85938 28.4648 9.76953 28.2852 9.58984C28.1055 9.40234 28.0156 9.14062 28.0156 8.80469V5.10156C28.0156 4.25781 27.793 3.62109 27.3477 3.19141C26.9102 2.76172 26.2891 2.54688 25.4844 2.54688H21.7109C21.375 2.54688 21.1133 2.45703 20.9258 2.27734C20.7461 2.09766 20.6562 1.84375 20.6562 1.51562C20.6562 1.17969 20.7461 0.921875 20.9258 0.742188C21.1133 0.5625 21.375 0.472656 21.7109 0.472656H25.5312C27.0469 0.472656 28.1836 0.851562 28.9414 1.60938C29.707 2.36719 30.0898 3.49219 30.0898 4.98438V8.80469C30.0898 9.50781 29.7422 9.85938 29.0469 9.85938ZM5.46875 29.6523C3.96094 29.6523 2.82422 29.2734 2.05859 28.5156C1.29297 27.7656 0.910156 26.6406 0.910156 25.1406V21.3203C0.910156 20.6172 1.25781 20.2656 1.95312 20.2656C2.28125 20.2656 2.53516 20.3594 2.71484 20.5469C2.89453 20.7266 2.98438 20.9844 2.98438 21.3203V25.0234C2.98438 25.8672 3.19922 26.5039 3.62891 26.9336C4.06641 27.3633 4.69531 27.5781 5.51562 27.5781H9.28906C9.625 27.5781 9.88281 27.668 10.0625 27.8477C10.25 28.0273 10.3438 28.2812 10.3438 28.6094C10.3438 28.9453 10.25 29.2031 10.0625 29.3828C9.88281 29.5625 9.625 29.6523 9.28906 29.6523H5.46875ZM21.7109 29.6523C21.375 29.6523 21.1133 29.5625 20.9258 29.3828C20.7461 29.2031 20.6562 28.9453 20.6562 28.6094C20.6562 28.2812 20.7461 28.0273 20.9258 27.8477C21.1133 27.668 21.375 27.5781 21.7109 27.5781H25.4844C26.2891 27.5781 26.9102 27.3633 27.3477 26.9336C27.793 26.5039 28.0156 25.8672 28.0156 25.0234V21.3203C28.0156 20.9844 28.1016 20.7266 28.2734 20.5469C28.4531 20.3594 28.7109 20.2656 29.0469 20.2656C29.3828 20.2656 29.6406 20.3594 29.8203 20.5469C30 20.7266 30.0898 20.9844 30.0898 21.3203V25.1406C30.0898 26.6328 29.707 27.7578 28.9414 28.5156C28.1836 29.2734 27.0469 29.6523 25.5312 29.6523H21.7109ZM9.82812 13.9375C9.50781 13.9375 9.24609 13.8359 9.04297 13.6328C8.84766 13.4297 8.75 13.1641 8.75 12.8359V10.7852C8.75 10.4648 8.84766 10.2031 9.04297 10C9.24609 9.79688 9.50781 9.69531 9.82812 9.69531C10.1484 9.69531 10.4102 9.79688 10.6133 10C10.8164 10.2031 10.918 10.4648 10.918 10.7852V12.8359C10.918 13.1641 10.8164 13.4297 10.6133 13.6328C10.4102 13.8359 10.1484 13.9375 9.82812 13.9375ZM14.2812 17.4766C13.9375 17.4766 13.6719 17.3984 13.4844 17.2422C13.2969 17.0859 13.2031 16.8633 13.2031 16.5742C13.2031 16.3398 13.2852 16.1445 13.4492 15.9883C13.6133 15.8242 13.8164 15.7422 14.0586 15.7422H14.5625C14.6641 15.7422 14.7461 15.7109 14.8086 15.6484C14.8789 15.5859 14.9141 15.5 14.9141 15.3906V10.5273C14.9141 10.2617 14.9922 10.0547 15.1484 9.90625C15.3047 9.75 15.5156 9.67188 15.7812 9.67188C16.0391 9.67188 16.2422 9.75 16.3906 9.90625C16.5469 10.0547 16.625 10.2617 16.625 10.5273V15.25C16.625 15.9766 16.4375 16.5312 16.0625 16.9141C15.6875 17.2891 15.1367 17.4766 14.4102 17.4766C14.3867 17.4766 14.3633 17.4766 14.3398 17.4766C14.3164 17.4766 14.2969 17.4766 14.2812 17.4766ZM21.1016 13.9375C20.7734 13.9375 20.5078 13.8359 20.3047 13.6328C20.1016 13.4297 20 13.1641 20 12.8359V10.7852C20 10.4648 20.1016 10.2031 20.3047 10C20.5078 9.79688 20.7734 9.69531 21.1016 9.69531C21.4141 9.69531 21.668 9.79688 21.8633 10C22.0664 10.2031 22.168 10.4648 22.168 10.7852V12.8359C22.168 13.1641 22.0664 13.4297 21.8633 13.6328C21.668 13.8359 21.4141 13.9375 21.1016 13.9375ZM15.4062 22.4336C14.5078 22.4336 13.6211 22.2578 12.7461 21.9062C11.8789 21.5547 11.1406 21.043 10.5312 20.3711C10.4531 20.2773 10.3906 20.1797 10.3438 20.0781C10.2969 19.9688 10.2734 19.8516 10.2734 19.7266C10.2734 19.4844 10.3555 19.2852 10.5195 19.1289C10.6836 18.9727 10.8867 18.8945 11.1289 18.8945C11.2852 18.8945 11.4141 18.9297 11.5156 19C11.625 19.0625 11.7344 19.1484 11.8438 19.2578C12.2891 19.7031 12.8281 20.0625 13.4609 20.3359C14.0938 20.6016 14.7422 20.7344 15.4062 20.7344C16.0859 20.7344 16.7422 20.5977 17.375 20.3242C18.0078 20.043 18.5352 19.6875 18.957 19.2578C19.1914 19.0156 19.4258 18.8945 19.6602 18.8945C19.9023 18.8945 20.1055 18.9727 20.2695 19.1289C20.4336 19.2852 20.5156 19.4844 20.5156 19.7266C20.5156 19.8672 20.4922 19.9922 20.4453 20.1016C20.4062 20.2109 20.3477 20.3047 20.2695 20.3828C19.6211 21.0234 18.8672 21.5273 18.0078 21.8945C17.1562 22.2539 16.2891 22.4336 15.4062 22.4336Z" fill="#14161D"/>
</svg>
